<svg width="590" height="590" viewBox="0 0 590 590" fill="none" xmlns="http://www.w3.org/2000/svg">
<path d="M255.01 17.7873C276.645 -5.36116 313.355 -5.36117 334.99 17.7873L369.862 55.0988C380.652 66.6442 395.906 72.9626 411.7 72.4289L462.742 70.7039C494.409 69.6338 520.366 95.5914 519.296 127.258L517.571 178.3C517.037 194.094 523.356 209.348 534.901 220.138L572.213 255.01C595.361 276.645 595.361 313.355 572.213 334.99L534.901 369.862C523.356 380.652 517.037 395.906 517.571 411.7L519.296 462.742C520.366 494.409 494.409 520.366 462.742 519.296L411.7 517.571C395.906 517.037 380.652 523.356 369.862 534.901L334.99 572.213C313.355 595.361 276.645 595.361 255.01 572.213L220.138 534.901C209.348 523.356 194.094 517.037 178.3 517.571L127.258 519.296C95.5914 520.366 69.6338 494.409 70.7039 462.742L72.4289 411.7C72.9626 395.906 66.6442 380.652 55.0988 369.862L17.7873 334.99C-5.36116 313.355 -5.36117 276.645 17.7873 255.01L55.0988 220.138C66.6442 209.348 72.9626 194.094 72.4289 178.3L70.7039 127.258C69.6338 95.5914 95.5914 69.6338 127.258 70.7039L178.3 72.4289C194.094 72.9626 209.348 66.6442 220.138 55.0988L255.01 17.7873Z" fill="#336DFF"/>
</svg>
